<mxfile host="app.diagrams.net" modified="2022-04-14T07:38:12.286Z" agent="5.0 (Macintosh; Intel Mac OS X 10_15_7) AppleWebKit/537.36 (KHTML, like Gecko) Chrome/100.0.4896.75 Safari/537.36" etag="NTNaOg-SOlekQXxfoJbo" version="17.4.3" type="github">
  <diagram id="TMgxbQlVMmeY9P32GQ1a" name="Page-1">
    <mxGraphModel dx="940" dy="658" grid="1" gridSize="10" guides="1" tooltips="1" connect="1" arrows="1" fold="1" page="1" pageScale="1" pageWidth="827" pageHeight="1169" math="0" shadow="0">
      <root>
        <mxCell id="0" />
        <mxCell id="1" parent="0" />
        <mxCell id="b4gnppYfoSFITk3-e2fL-1" value="&lt;font style=&quot;font-size: 16px&quot;&gt;log&lt;/font&gt;" style="shape=document;whiteSpace=wrap;html=1;boundedLbl=1;" parent="1" vertex="1">
          <mxGeometry x="80" y="200" width="60" height="50" as="geometry" />
        </mxCell>
        <mxCell id="b4gnppYfoSFITk3-e2fL-2" value="业务DB" style="shape=cylinder3;whiteSpace=wrap;html=1;boundedLbl=1;backgroundOutline=1;size=15;fontSize=16;" parent="1" vertex="1">
          <mxGeometry x="82.5" y="390" width="55" height="80" as="geometry" />
        </mxCell>
        <mxCell id="b4gnppYfoSFITk3-e2fL-3" value="爬虫" style="ellipse;shape=cloud;whiteSpace=wrap;html=1;fontSize=16;" parent="1" vertex="1">
          <mxGeometry x="65" y="560" width="90" height="60" as="geometry" />
        </mxCell>
        <mxCell id="b4gnppYfoSFITk3-e2fL-4" value="HDFS" style="rounded=0;whiteSpace=wrap;html=1;fontSize=16;fillColor=#ffe6cc;strokeColor=#d79b00;" parent="1" vertex="1">
          <mxGeometry x="310" y="270" width="80" height="50" as="geometry" />
        </mxCell>
        <mxCell id="b4gnppYfoSFITk3-e2fL-6" value="Flume" style="ellipse;whiteSpace=wrap;html=1;fontSize=16;fillColor=#ffe6cc;strokeColor=#d79b00;" parent="1" vertex="1">
          <mxGeometry x="180" y="270" width="60" height="50" as="geometry" />
        </mxCell>
        <mxCell id="b4gnppYfoSFITk3-e2fL-7" value="KAFKA" style="rounded=0;whiteSpace=wrap;html=1;fontSize=16;fillColor=#ffe6cc;strokeColor=#d79b00;" parent="1" vertex="1">
          <mxGeometry x="310" y="500" width="80" height="50" as="geometry" />
        </mxCell>
        <mxCell id="b4gnppYfoSFITk3-e2fL-9" value="" style="endArrow=classic;html=1;rounded=0;fontSize=16;exitX=1;exitY=0.5;exitDx=0;exitDy=0;entryX=0;entryY=0;entryDx=0;entryDy=0;" parent="1" source="b4gnppYfoSFITk3-e2fL-1" target="b4gnppYfoSFITk3-e2fL-6" edge="1">
          <mxGeometry width="50" height="50" relative="1" as="geometry">
            <mxPoint x="210" y="430" as="sourcePoint" />
            <mxPoint x="260" y="380" as="targetPoint" />
          </mxGeometry>
        </mxCell>
        <mxCell id="b4gnppYfoSFITk3-e2fL-10" value="" style="endArrow=classic;html=1;rounded=0;fontSize=16;exitX=1;exitY=0.5;exitDx=0;exitDy=0;entryX=0;entryY=0.5;entryDx=0;entryDy=0;" parent="1" source="b4gnppYfoSFITk3-e2fL-6" target="b4gnppYfoSFITk3-e2fL-4" edge="1">
          <mxGeometry width="50" height="50" relative="1" as="geometry">
            <mxPoint x="150" y="235" as="sourcePoint" />
            <mxPoint x="198.78679656440363" y="287.3223304703363" as="targetPoint" />
          </mxGeometry>
        </mxCell>
        <mxCell id="b4gnppYfoSFITk3-e2fL-11" value="" style="endArrow=classic;html=1;rounded=0;fontSize=16;exitX=0.5;exitY=1;exitDx=0;exitDy=0;entryX=0;entryY=0.5;entryDx=0;entryDy=0;strokeColor=#FF00FF;" parent="1" source="b4gnppYfoSFITk3-e2fL-6" target="b4gnppYfoSFITk3-e2fL-7" edge="1">
          <mxGeometry width="50" height="50" relative="1" as="geometry">
            <mxPoint x="250" y="305" as="sourcePoint" />
            <mxPoint x="320" y="305" as="targetPoint" />
          </mxGeometry>
        </mxCell>
        <mxCell id="b4gnppYfoSFITk3-e2fL-12" value="" style="endArrow=classic;html=1;rounded=0;fontSize=16;exitX=1;exitY=0.5;exitDx=0;exitDy=0;entryX=0;entryY=0.5;entryDx=0;entryDy=0;exitPerimeter=0;" parent="1" source="b4gnppYfoSFITk3-e2fL-2" target="b4gnppYfoSFITk3-e2fL-4" edge="1">
          <mxGeometry width="50" height="50" relative="1" as="geometry">
            <mxPoint x="250" y="305" as="sourcePoint" />
            <mxPoint x="320" y="305" as="targetPoint" />
          </mxGeometry>
        </mxCell>
        <mxCell id="b4gnppYfoSFITk3-e2fL-13" value="" style="endArrow=classic;html=1;rounded=0;fontSize=16;exitX=0.88;exitY=0.25;exitDx=0;exitDy=0;entryX=0;entryY=0.5;entryDx=0;entryDy=0;exitPerimeter=0;" parent="1" source="b4gnppYfoSFITk3-e2fL-3" target="b4gnppYfoSFITk3-e2fL-4" edge="1">
          <mxGeometry width="50" height="50" relative="1" as="geometry">
            <mxPoint x="147.5" y="440" as="sourcePoint" />
            <mxPoint x="320" y="305" as="targetPoint" />
          </mxGeometry>
        </mxCell>
        <mxCell id="b4gnppYfoSFITk3-e2fL-14" value="内部二次清洗" style="text;html=1;align=center;verticalAlign=middle;resizable=0;points=[];autosize=1;strokeColor=none;fillColor=none;fontSize=16;" parent="1" vertex="1">
          <mxGeometry x="295" y="330" width="110" height="20" as="geometry" />
        </mxCell>
        <mxCell id="b4gnppYfoSFITk3-e2fL-15" value="离线数仓&lt;br&gt;Hive" style="rounded=0;whiteSpace=wrap;html=1;fontSize=16;fillColor=#ffe6cc;strokeColor=#d79b00;" parent="1" vertex="1">
          <mxGeometry x="470" y="270" width="80" height="50" as="geometry" />
        </mxCell>
        <mxCell id="b4gnppYfoSFITk3-e2fL-16" value="实时计算&lt;br&gt;Flink" style="rounded=0;whiteSpace=wrap;html=1;fontSize=16;fillColor=#ffe6cc;strokeColor=#d79b00;" parent="1" vertex="1">
          <mxGeometry x="470" y="500" width="80" height="50" as="geometry" />
        </mxCell>
        <mxCell id="b4gnppYfoSFITk3-e2fL-18" value="逻辑表" style="text;html=1;align=center;verticalAlign=middle;resizable=0;points=[];autosize=1;strokeColor=none;fillColor=none;fontSize=16;" parent="1" vertex="1">
          <mxGeometry x="480" y="330" width="60" height="20" as="geometry" />
        </mxCell>
        <mxCell id="b4gnppYfoSFITk3-e2fL-20" value="报表DB&lt;br&gt;或Kylin" style="shape=cylinder3;whiteSpace=wrap;html=1;boundedLbl=1;backgroundOutline=1;size=15;fontSize=16;" parent="1" vertex="1">
          <mxGeometry x="620" y="150" width="80" height="80" as="geometry" />
        </mxCell>
        <mxCell id="b4gnppYfoSFITk3-e2fL-21" value="QuickBI" style="rounded=0;whiteSpace=wrap;html=1;fontSize=16;fillColor=#d5e8d4;strokeColor=#82b366;" parent="1" vertex="1">
          <mxGeometry x="750" y="165" width="80" height="50" as="geometry" />
        </mxCell>
        <mxCell id="b4gnppYfoSFITk3-e2fL-22" value="Zeye" style="rounded=0;whiteSpace=wrap;html=1;fontSize=16;" parent="1" vertex="1">
          <mxGeometry x="890" y="165" width="80" height="50" as="geometry" />
        </mxCell>
        <mxCell id="b4gnppYfoSFITk3-e2fL-23" value="" style="endArrow=classic;html=1;rounded=0;fontSize=16;exitX=1;exitY=0.5;exitDx=0;exitDy=0;entryX=0;entryY=0.5;entryDx=0;entryDy=0;" parent="1" source="b4gnppYfoSFITk3-e2fL-4" target="b4gnppYfoSFITk3-e2fL-15" edge="1">
          <mxGeometry width="50" height="50" relative="1" as="geometry">
            <mxPoint x="250" y="305" as="sourcePoint" />
            <mxPoint x="320" y="305" as="targetPoint" />
          </mxGeometry>
        </mxCell>
        <mxCell id="b4gnppYfoSFITk3-e2fL-24" value="" style="endArrow=classic;html=1;rounded=0;fontSize=16;exitX=1;exitY=0.5;exitDx=0;exitDy=0;entryX=0;entryY=0.5;entryDx=0;entryDy=0;entryPerimeter=0;" parent="1" source="b4gnppYfoSFITk3-e2fL-15" target="b4gnppYfoSFITk3-e2fL-20" edge="1">
          <mxGeometry width="50" height="50" relative="1" as="geometry">
            <mxPoint x="400" y="305" as="sourcePoint" />
            <mxPoint x="480" y="305" as="targetPoint" />
          </mxGeometry>
        </mxCell>
        <mxCell id="b4gnppYfoSFITk3-e2fL-25" value="" style="endArrow=classic;html=1;rounded=0;fontSize=16;exitX=1;exitY=0.5;exitDx=0;exitDy=0;entryX=0;entryY=0.5;entryDx=0;entryDy=0;exitPerimeter=0;" parent="1" source="b4gnppYfoSFITk3-e2fL-20" target="b4gnppYfoSFITk3-e2fL-21" edge="1">
          <mxGeometry width="50" height="50" relative="1" as="geometry">
            <mxPoint x="560" y="305" as="sourcePoint" />
            <mxPoint x="630" y="200" as="targetPoint" />
          </mxGeometry>
        </mxCell>
        <mxCell id="b4gnppYfoSFITk3-e2fL-26" value="" style="endArrow=classic;html=1;rounded=0;fontSize=16;exitX=1;exitY=0.5;exitDx=0;exitDy=0;entryX=0;entryY=0.5;entryDx=0;entryDy=0;" parent="1" source="b4gnppYfoSFITk3-e2fL-21" target="b4gnppYfoSFITk3-e2fL-22" edge="1">
          <mxGeometry width="50" height="50" relative="1" as="geometry">
            <mxPoint x="685" y="200" as="sourcePoint" />
            <mxPoint x="760" y="200" as="targetPoint" />
          </mxGeometry>
        </mxCell>
        <mxCell id="b4gnppYfoSFITk3-e2fL-27" value="嵌入" style="text;html=1;align=center;verticalAlign=middle;resizable=0;points=[];autosize=1;strokeColor=none;fillColor=none;fontSize=16;" parent="1" vertex="1">
          <mxGeometry x="830" y="195" width="50" height="20" as="geometry" />
        </mxCell>
        <mxCell id="b4gnppYfoSFITk3-e2fL-28" value="云窗" style="rounded=0;whiteSpace=wrap;html=1;fontSize=16;fillColor=#ffe6cc;strokeColor=#d79b00;" parent="1" vertex="1">
          <mxGeometry x="890" y="270" width="80" height="50" as="geometry" />
        </mxCell>
        <mxCell id="b4gnppYfoSFITk3-e2fL-29" value="" style="endArrow=classic;html=1;rounded=0;fontSize=16;exitX=1;exitY=0.5;exitDx=0;exitDy=0;entryX=0;entryY=0.5;entryDx=0;entryDy=0;" parent="1" source="b4gnppYfoSFITk3-e2fL-15" target="b4gnppYfoSFITk3-e2fL-28" edge="1">
          <mxGeometry width="50" height="50" relative="1" as="geometry">
            <mxPoint x="560" y="305" as="sourcePoint" />
            <mxPoint x="630" y="200" as="targetPoint" />
          </mxGeometry>
        </mxCell>
        <mxCell id="b4gnppYfoSFITk3-e2fL-30" value="调度平台" style="rounded=0;whiteSpace=wrap;html=1;fontSize=16;fillColor=#ffe6cc;strokeColor=#d79b00;" parent="1" vertex="1">
          <mxGeometry x="890" y="456" width="80" height="50" as="geometry" />
        </mxCell>
        <mxCell id="b4gnppYfoSFITk3-e2fL-31" value="" style="endArrow=classic;html=1;rounded=0;fontSize=16;exitX=1;exitY=0.5;exitDx=0;exitDy=0;entryX=0;entryY=0.5;entryDx=0;entryDy=0;" parent="1" source="b4gnppYfoSFITk3-e2fL-15" target="b4gnppYfoSFITk3-e2fL-30" edge="1">
          <mxGeometry width="50" height="50" relative="1" as="geometry">
            <mxPoint x="560" y="305" as="sourcePoint" />
            <mxPoint x="900" y="305" as="targetPoint" />
          </mxGeometry>
        </mxCell>
        <mxCell id="qtKlCRNCfXGgiiKGvy_T-9" value="大部分" style="edgeLabel;html=1;align=center;verticalAlign=middle;resizable=0;points=[];fontSize=16;" parent="b4gnppYfoSFITk3-e2fL-31" vertex="1" connectable="0">
          <mxGeometry x="0.2578" relative="1" as="geometry">
            <mxPoint y="-1" as="offset" />
          </mxGeometry>
        </mxCell>
        <mxCell id="b4gnppYfoSFITk3-e2fL-32" value="" style="endArrow=classic;html=1;rounded=0;fontSize=16;exitX=1;exitY=0.5;exitDx=0;exitDy=0;entryX=0;entryY=0.5;entryDx=0;entryDy=0;" parent="1" source="b4gnppYfoSFITk3-e2fL-16" target="b4gnppYfoSFITk3-e2fL-30" edge="1">
          <mxGeometry width="50" height="50" relative="1" as="geometry">
            <mxPoint x="560" y="305" as="sourcePoint" />
            <mxPoint x="900" y="425" as="targetPoint" />
          </mxGeometry>
        </mxCell>
        <mxCell id="qtKlCRNCfXGgiiKGvy_T-10" value="少量" style="edgeLabel;html=1;align=center;verticalAlign=middle;resizable=0;points=[];fontSize=16;" parent="b4gnppYfoSFITk3-e2fL-32" vertex="1" connectable="0">
          <mxGeometry x="0.2406" y="3" relative="1" as="geometry">
            <mxPoint y="-4" as="offset" />
          </mxGeometry>
        </mxCell>
        <mxCell id="b4gnppYfoSFITk3-e2fL-33" value="" style="endArrow=classic;html=1;rounded=0;fontSize=16;exitX=1;exitY=0.5;exitDx=0;exitDy=0;entryX=0;entryY=0.5;entryDx=0;entryDy=0;strokeColor=#FF00FF;" parent="1" source="b4gnppYfoSFITk3-e2fL-7" target="b4gnppYfoSFITk3-e2fL-16" edge="1">
          <mxGeometry width="50" height="50" relative="1" as="geometry">
            <mxPoint x="220" y="330" as="sourcePoint" />
            <mxPoint x="320" y="535" as="targetPoint" />
          </mxGeometry>
        </mxCell>
        <mxCell id="b4gnppYfoSFITk3-e2fL-34" value="报表DB" style="shape=cylinder3;whiteSpace=wrap;html=1;boundedLbl=1;backgroundOutline=1;size=15;fontSize=16;" parent="1" vertex="1">
          <mxGeometry x="620" y="630" width="55" height="80" as="geometry" />
        </mxCell>
        <mxCell id="b4gnppYfoSFITk3-e2fL-35" value="" style="endArrow=classic;html=1;rounded=0;fontSize=16;exitX=1;exitY=0.5;exitDx=0;exitDy=0;entryX=0;entryY=0.5;entryDx=0;entryDy=0;strokeColor=#FF00FF;entryPerimeter=0;" parent="1" source="b4gnppYfoSFITk3-e2fL-16" target="b4gnppYfoSFITk3-e2fL-34" edge="1">
          <mxGeometry width="50" height="50" relative="1" as="geometry">
            <mxPoint x="400" y="535" as="sourcePoint" />
            <mxPoint x="480" y="535" as="targetPoint" />
          </mxGeometry>
        </mxCell>
        <mxCell id="qtKlCRNCfXGgiiKGvy_T-1" value="阿里私有化" style="text;html=1;align=center;verticalAlign=middle;resizable=0;points=[];autosize=1;strokeColor=none;fillColor=none;fontSize=16;" parent="1" vertex="1">
          <mxGeometry x="740" y="220" width="100" height="20" as="geometry" />
        </mxCell>
        <mxCell id="qtKlCRNCfXGgiiKGvy_T-2" value="自研成本：&lt;br&gt;1.Hadoop生态的基础运维&lt;br&gt;2.云窗的替代品，&lt;font color=&quot;#ff0000&quot;&gt;有开源的HUE，但功能远远不够，可考虑58私有化&lt;/font&gt;&lt;br&gt;3.调度平台的私有化，&lt;font color=&quot;#ff0000&quot;&gt;有zzdp，但功能需要完善，可考虑58私有化&lt;/font&gt;&lt;br&gt;4.星火的替代品，QuickBI能够替代（已支持自助建表），先基于Hive查询结果建MySQL表，再在QuickBI配置相应数据集，&lt;font color=&quot;#ff0000&quot;&gt;不如星火省事，且有一定的建表成本&lt;/font&gt;" style="text;html=1;align=left;verticalAlign=middle;resizable=0;points=[];autosize=1;strokeColor=none;fillColor=none;fontSize=16;" parent="1" vertex="1">
          <mxGeometry x="280" y="730" width="1140" height="100" as="geometry" />
        </mxCell>
        <mxCell id="qtKlCRNCfXGgiiKGvy_T-3" value="可视化报表（离线），面向老板" style="text;html=1;align=center;verticalAlign=middle;resizable=0;points=[];autosize=1;strokeColor=none;fillColor=none;fontSize=16;" parent="1" vertex="1">
          <mxGeometry x="970" y="180" width="240" height="20" as="geometry" />
        </mxCell>
        <mxCell id="qtKlCRNCfXGgiiKGvy_T-4" value="自助SQL分析平台，面向分析师、RD、运营等" style="text;html=1;align=center;verticalAlign=middle;resizable=0;points=[];autosize=1;strokeColor=none;fillColor=none;fontSize=16;" parent="1" vertex="1">
          <mxGeometry x="970" y="290" width="340" height="20" as="geometry" />
        </mxCell>
        <mxCell id="qtKlCRNCfXGgiiKGvy_T-5" value="" style="shape=curlyBracket;whiteSpace=wrap;html=1;rounded=1;flipH=1;fontSize=16;" parent="1" vertex="1">
          <mxGeometry x="1316" y="180" width="20" height="120" as="geometry" />
        </mxCell>
        <mxCell id="qtKlCRNCfXGgiiKGvy_T-6" value="场景不一样，互为补充，而不是替代" style="text;html=1;align=center;verticalAlign=middle;resizable=0;points=[];autosize=1;strokeColor=none;fillColor=none;fontSize=16;" parent="1" vertex="1">
          <mxGeometry x="1331" y="230" width="270" height="20" as="geometry" />
        </mxCell>
        <mxCell id="qtKlCRNCfXGgiiKGvy_T-7" value="统计" style="text;html=1;align=center;verticalAlign=middle;resizable=0;points=[];autosize=1;strokeColor=none;fillColor=none;fontSize=16;" parent="1" vertex="1">
          <mxGeometry x="550" y="240" width="50" height="20" as="geometry" />
        </mxCell>
        <mxCell id="qtKlCRNCfXGgiiKGvy_T-8" value="一线研发" style="text;html=1;align=center;verticalAlign=middle;resizable=0;points=[];autosize=1;strokeColor=none;fillColor=none;fontSize=16;" parent="1" vertex="1">
          <mxGeometry x="670" y="280" width="80" height="20" as="geometry" />
        </mxCell>
        <mxCell id="qtKlCRNCfXGgiiKGvy_T-12" value="" style="endArrow=classic;html=1;rounded=0;fontSize=16;exitX=1;exitY=0.5;exitDx=0;exitDy=0;entryX=0;entryY=0.5;entryDx=0;entryDy=0;strokeColor=#FF00FF;exitPerimeter=0;" parent="1" source="b4gnppYfoSFITk3-e2fL-2" target="b4gnppYfoSFITk3-e2fL-7" edge="1">
          <mxGeometry width="50" height="50" relative="1" as="geometry">
            <mxPoint x="220" y="330" as="sourcePoint" />
            <mxPoint x="320" y="535" as="targetPoint" />
          </mxGeometry>
        </mxCell>
        <mxCell id="qtKlCRNCfXGgiiKGvy_T-13" value="binlog" style="text;html=1;align=center;verticalAlign=middle;resizable=0;points=[];autosize=1;strokeColor=none;fillColor=none;fontSize=16;" parent="1" vertex="1">
          <mxGeometry x="150" y="436" width="60" height="20" as="geometry" />
        </mxCell>
        <mxCell id="qtKlCRNCfXGgiiKGvy_T-14" value="" style="endArrow=classic;html=1;rounded=0;fontSize=16;exitX=0.88;exitY=0.25;exitDx=0;exitDy=0;entryX=0;entryY=0.5;entryDx=0;entryDy=0;strokeColor=#FF00FF;exitPerimeter=0;" parent="1" source="b4gnppYfoSFITk3-e2fL-3" target="b4gnppYfoSFITk3-e2fL-7" edge="1">
          <mxGeometry width="50" height="50" relative="1" as="geometry">
            <mxPoint x="147.5" y="440" as="sourcePoint" />
            <mxPoint x="320" y="535" as="targetPoint" />
          </mxGeometry>
        </mxCell>
        <mxCell id="qtKlCRNCfXGgiiKGvy_T-15" value="" style="endArrow=classic;html=1;rounded=0;fontSize=16;exitX=1;exitY=0.5;exitDx=0;exitDy=0;entryX=0;entryY=0.5;entryDx=0;entryDy=0;" parent="1" edge="1">
          <mxGeometry width="50" height="50" relative="1" as="geometry">
            <mxPoint x="990" y="20" as="sourcePoint" />
            <mxPoint x="1070" y="20" as="targetPoint" />
          </mxGeometry>
        </mxCell>
        <mxCell id="qtKlCRNCfXGgiiKGvy_T-16" value="离线" style="text;html=1;align=center;verticalAlign=middle;resizable=0;points=[];autosize=1;strokeColor=none;fillColor=none;fontSize=16;" parent="1" vertex="1">
          <mxGeometry x="1070" y="10" width="50" height="20" as="geometry" />
        </mxCell>
        <mxCell id="qtKlCRNCfXGgiiKGvy_T-17" value="" style="endArrow=classic;html=1;rounded=0;fontSize=16;exitX=1;exitY=0.5;exitDx=0;exitDy=0;entryX=0;entryY=0.5;entryDx=0;entryDy=0;strokeColor=#FF00FF;" parent="1" edge="1">
          <mxGeometry width="50" height="50" relative="1" as="geometry">
            <mxPoint x="990" y="50" as="sourcePoint" />
            <mxPoint x="1070" y="50" as="targetPoint" />
          </mxGeometry>
        </mxCell>
        <mxCell id="qtKlCRNCfXGgiiKGvy_T-18" value="实时" style="text;html=1;align=center;verticalAlign=middle;resizable=0;points=[];autosize=1;strokeColor=none;fillColor=none;fontSize=16;" parent="1" vertex="1">
          <mxGeometry x="1070" y="40" width="50" height="20" as="geometry" />
        </mxCell>
        <mxCell id="N9OCV6XKO_UFdlqKsw-6-1" value="星火" style="rounded=0;whiteSpace=wrap;html=1;fontSize=16;fillColor=#ffe6cc;strokeColor=#d79b00;" vertex="1" parent="1">
          <mxGeometry x="890" y="360" width="80" height="50" as="geometry" />
        </mxCell>
        <mxCell id="N9OCV6XKO_UFdlqKsw-6-2" value="" style="endArrow=classic;html=1;rounded=0;fontSize=16;exitX=0.5;exitY=1;exitDx=0;exitDy=0;entryX=0.5;entryY=0;entryDx=0;entryDy=0;" edge="1" parent="1" source="b4gnppYfoSFITk3-e2fL-28" target="N9OCV6XKO_UFdlqKsw-6-1">
          <mxGeometry width="50" height="50" relative="1" as="geometry">
            <mxPoint x="560" y="305" as="sourcePoint" />
            <mxPoint x="900" y="305" as="targetPoint" />
          </mxGeometry>
        </mxCell>
        <mxCell id="N9OCV6XKO_UFdlqKsw-6-7" value="" style="rounded=0;whiteSpace=wrap;html=1;fillColor=none;dashed=1;strokeWidth=2;strokeColor=#FF8000;" vertex="1" parent="1">
          <mxGeometry x="860" y="240" width="140" height="300" as="geometry" />
        </mxCell>
        <mxCell id="N9OCV6XKO_UFdlqKsw-6-5" value="查询结果的报表展示" style="text;html=1;align=center;verticalAlign=middle;resizable=0;points=[];autosize=1;strokeColor=none;fillColor=none;fontSize=16;" vertex="1" parent="1">
          <mxGeometry x="930" y="330" width="160" height="20" as="geometry" />
        </mxCell>
        <mxCell id="N9OCV6XKO_UFdlqKsw-6-6" value="SQL查询结果的可视化，对标QuickBI（竞品）" style="text;html=1;align=center;verticalAlign=middle;resizable=0;points=[];autosize=1;strokeColor=none;fillColor=none;fontSize=16;" vertex="1" parent="1">
          <mxGeometry x="976" y="375" width="340" height="20" as="geometry" />
        </mxCell>
        <mxCell id="N9OCV6XKO_UFdlqKsw-6-8" value="星河" style="edgeLabel;html=1;align=center;verticalAlign=middle;resizable=0;points=[];fontSize=16;" vertex="1" connectable="0" parent="1">
          <mxGeometry x="930.0019907560466" y="540.0045008253666" as="geometry" />
        </mxCell>
        <mxCell id="N9OCV6XKO_UFdlqKsw-6-9" value="DataX" style="text;html=1;align=center;verticalAlign=middle;resizable=0;points=[];autosize=1;strokeColor=none;fillColor=none;fontSize=16;" vertex="1" parent="1">
          <mxGeometry x="150" y="380" width="60" height="20" as="geometry" />
        </mxCell>
        <mxCell id="N9OCV6XKO_UFdlqKsw-6-10" value="api" style="text;html=1;align=center;verticalAlign=middle;resizable=0;points=[];autosize=1;strokeColor=none;fillColor=none;fontSize=16;" vertex="1" parent="1">
          <mxGeometry x="155" y="540" width="40" height="20" as="geometry" />
        </mxCell>
        <mxCell id="N9OCV6XKO_UFdlqKsw-6-12" value="DataV" style="rounded=0;whiteSpace=wrap;html=1;fontSize=16;fillColor=#d5e8d4;strokeColor=#82b366;" vertex="1" parent="1">
          <mxGeometry x="900" y="645" width="80" height="50" as="geometry" />
        </mxCell>
        <mxCell id="N9OCV6XKO_UFdlqKsw-6-14" value="阿里私有化" style="text;html=1;align=center;verticalAlign=middle;resizable=0;points=[];autosize=1;strokeColor=none;fillColor=none;fontSize=16;" vertex="1" parent="1">
          <mxGeometry x="890" y="700" width="100" height="20" as="geometry" />
        </mxCell>
        <mxCell id="N9OCV6XKO_UFdlqKsw-6-15" value="大屏监控（实时）" style="text;html=1;align=center;verticalAlign=middle;resizable=0;points=[];autosize=1;strokeColor=none;fillColor=none;fontSize=16;" vertex="1" parent="1">
          <mxGeometry x="986" y="660" width="140" height="20" as="geometry" />
        </mxCell>
        <mxCell id="N9OCV6XKO_UFdlqKsw-6-16" value="" style="endArrow=classic;html=1;rounded=0;fontSize=16;exitX=1;exitY=0.5;exitDx=0;exitDy=0;entryX=0;entryY=0.5;entryDx=0;entryDy=0;strokeColor=#FF00FF;exitPerimeter=0;startArrow=none;" edge="1" parent="1" source="N9OCV6XKO_UFdlqKsw-6-17" target="N9OCV6XKO_UFdlqKsw-6-12">
          <mxGeometry width="50" height="50" relative="1" as="geometry">
            <mxPoint x="560" y="535" as="sourcePoint" />
            <mxPoint x="630" y="680" as="targetPoint" />
          </mxGeometry>
        </mxCell>
        <mxCell id="N9OCV6XKO_UFdlqKsw-6-17" value="One Service" style="rounded=0;whiteSpace=wrap;html=1;fontSize=16;" vertex="1" parent="1">
          <mxGeometry x="747" y="645" width="80" height="50" as="geometry" />
        </mxCell>
        <mxCell id="N9OCV6XKO_UFdlqKsw-6-19" value="数据查询服务" style="text;html=1;align=center;verticalAlign=middle;resizable=0;points=[];autosize=1;strokeColor=none;fillColor=none;fontSize=16;" vertex="1" parent="1">
          <mxGeometry x="735" y="700" width="110" height="20" as="geometry" />
        </mxCell>
        <mxCell id="N9OCV6XKO_UFdlqKsw-6-20" value="" style="endArrow=classic;html=1;rounded=0;fontSize=16;exitX=1;exitY=0.5;exitDx=0;exitDy=0;strokeColor=#FF00FF;exitPerimeter=0;startArrow=none;" edge="1" parent="1" source="b4gnppYfoSFITk3-e2fL-34">
          <mxGeometry width="50" height="50" relative="1" as="geometry">
            <mxPoint x="837" y="680" as="sourcePoint" />
            <mxPoint x="750" y="670" as="targetPoint" />
          </mxGeometry>
        </mxCell>
      </root>
    </mxGraphModel>
  </diagram>
</mxfile>
